PathFileType        4      (X/Y/Z)      C:\Users\pc\Desktop\IMUTRC\Sujet_02\Sujet_02_velo_100.trc         
DataRate	CameraRate	NumFrames	NumMarkers	Units	OrigDataRate	OrigDataStartFrame	OrigNumFrames
60.0	60.0	4	64	mm	60.0	1	943
Frame#	Time	pHipOrigin			pRightASI			pLeftASI			pRightCSI			pLeftCSI			pRightIschialTub			pLeftIschialTub			pSacrum			pL5SpinalProcess			pL3SpinalProcess			pT12SpinalProcess			pIJ			pT4SpinalProcess			pT8SpinalProcess			pPX			pC7SpinalProcess			pTopOfHead			pRightAuricularis			pLeftAuricularis			pBackOfHead			pRightAcromion			pLeftAcromion			pRightArmLatEpicondyle			pRightArmMedEpicondyle			pLeftArmLatEpicondyle			pLeftArmMedEpicondyle			pRightUlnarStyloid			pRightRadialStyloid			pRightOlecranon			pLeftUlnarStyloid			pLeftRadialStyloid			pLeftOlecranon			pRightTopOfHand			pRightPinky			pRightBallHand			pLeftTopOfHand			pLeftPinky			pLeftBallHand			pRightGreaterTrochanter			pRightKneeLatEpicondyle			pRightKneeMedEpicondyle			pRightPatella			pLeftGreaterTrochanter			pLeftKneeLatEpicondyle			pLeftKneeMedEpicondyle			pLeftPatella			pRightTibialTub			pRightLatMalleolus			pRightMedMalleolus			pLeftTibialTub			pLeftLatMalleolus			pLeftMedMalleolus			pRightHeelFoot			pRightFirstMetatarsal			pRightFifthMetatarsal			pRightPivotFoot			pRightHeelCenter			pRightToe			pLeftHeelFoot			pLeftFirstMetatarsal			pLeftFifthMetatarsal			pLeftPivotFoot			pLeftHeelCenter			pLeftToe			
		X1	Y1	Z1	X2	Y2	Z2	X3	Y3	Z3	X4	Y4	Z4	X5	Y5	Z5	X6	Y6	Z6	X7	Y7	Z7	X8	Y8	Z8	X9	Y9	Z9	X10	Y10	Z10	X11	Y11	Z11	X12	Y12	Z12	X13	Y13	Z13	X14	Y14	Z14	X15	Y15	Z15	X16	Y16	Z16	X17	Y17	Z17	X18	Y18	Z18	X19	Y19	Z19	X20	Y20	Z20	X21	Y21	Z21	X22	Y22	Z22	X23	Y23	Z23	X24	Y24	Z24	X25	Y25	Z25	X26	Y26	Z26	X27	Y27	Z27	X28	Y28	Z28	X29	Y29	Z29	X30	Y30	Z30	X31	Y31	Z31	X32	Y32	Z32	X33	Y33	Z33	X34	Y34	Z34	X35	Y35	Z35	X36	Y36	Z36	X37	Y37	Z37	X38	Y38	Z38	X39	Y39	Z39	X40	Y40	Z40	X41	Y41	Z41	X42	Y42	Z42	X43	Y43	Z43	X44	Y44	Z44	X45	Y45	Z45	X46	Y46	Z46	X47	Y47	Z47	X48	Y48	Z48	X49	Y49	Z49	X50	Y50	Z50	X51	Y51	Z51	X52	Y52	Z52	X53	Y53	Z53	X54	Y54	Z54	X55	Y55	Z55	X56	Y56	Z56	X57	Y57	Z57	X58	Y58	Z58	X59	Y59	Z59	X60	Y60	Z60	X61	Y61	Z61	X62	Y62	Z62	X63	Y63	Z63	X64	Y64	Z64	
1	0.0	0.0	1250.00218	7.654055843321067E-14	79.00127000000002	1363.73678	133.65517000000008	26.95804999999999	1366.80148	-150.6245499999999	17.423410000000008	1426.79023	119.12620000000008	-25.255440000000007	1429.2874	-113.90484999999991	-37.68451999999999	1180.42204	66.34518000000007	-59.02394	1181.67062	-50.113589999999924	-72.47459	1261.06917	13.39389000000008	-46.59486	1377.13067	10.726470000000088	4.597060000000001	1488.14108	8.39956000000009	63.05346	1583.82797	6.242920000000093	324.46141	1601.87567	-35.244099999999925	217.76429	1714.64545	-4.483549999999909	138.6495	1664.19133	2.099890000000093	219.23988	1528.60653	-27.241819999999922	272.75871	1744.15742	-8.34280999999991	501.30621	1740.63868	-80.59037999999991	440.80667	1714.07791	5.959150000000078	397.10626	1743.87365	-112.03197999999992	416.62956	1777.98267	-39.78440999999992	271.73714	1690.80886	189.7279100000001	224.63149	1729.74196	-211.40785999999989	312.77013	1408.45876	262.82679000000013	274.00729	1386.04101	216.00492000000006	306.01643	1442.90831	-220.20469999999995	272.75871	1426.9605	-166.96963999999994	401.93033	1148.24264	335.30138000000005	450.68183	1166.46061	308.5135900000001	267.25359	1395.74591	252.44085000000007	434.27999	1192.90787	-252.89487999999994	472.7023	1214.19054	-214.24554999999995	267.31034	1431.44404	-214.07528999999994	583.08842	1054.14486	324.06413	498.8658	1074.17895	352.04375	442.39578	1121.11433	328.8314500000001	631.38589	1160.72848	-189.84141999999994	554.42776	1149.32096	-237.06056999999998	482.06668	1175.14394	-232.17974999999996	36.66295000000001	1221.79555	173.7801000000001	276.10718	844.78014	133.93894000000003	276.27744	846.14223	47.389410000000034	315.26729	874.29211	88.30889000000005	16.572109999999988	1239.72975	-174.00710999999993	445.23347	1113.33906	-137.51442999999998	445.6875	1116.23351	-50.96489999999996	456.01669	1162.20407	-93.01945999999995	326.90182	799.94464	89.10345000000002	166.11834	399.09264	106.64037000000002	169.69383	400.51148	38.308810000000015	477.92365	1063.96327	-96.48143999999996	220.71548	719.75154	-143.24655999999993	223.21265	715.3815	-75.02850999999997	84.73341	307.20826	39.443880000000014	257.15141	237.68486	34.90358	233.82561	228.49075	119.1262	268.04814	223.04239	80.87415	122.75844	288.64977	47.956950000000006	343.36042	189.78467	98.07055	107.15115	665.94895	-82.12272999999996	233.37158	529.79661	-92.90594999999999	208.57017	541.03386	-176.50427999999997	237.06057	517.25403	-140.69264	133.71192	634.11007	-94.26803999999997	290.97667	457.37878	-164.75625	
2	0.017	0.0	1250.00218	7.654055843321067E-14	79.22829000000002	1364.58808	132.80386000000007	26.95804999999999	1365.6664	-151.47585999999993	17.707180000000008	1427.58479	117.87762000000008	-25.141930000000006	1428.49285	-115.15343999999992	-37.68451999999999	1180.93282	66.91272000000006	-59.13745	1181.38685	-49.60280999999992	-72.47459	1261.23943	13.33714000000008	-46.48135	1377.24418	9.875160000000086	4.82407	1488.14108	7.150980000000091	63.33723	1583.82797	4.824070000000093	324.85868	1601.5919	-36.20891999999992	218.21832	1714.47519	-5.675379999999908	139.04678	1664.07782	0.7378000000000934	219.58041	1528.43627	-28.433649999999922	273.26949	1743.9304	-9.42112999999991	501.47647	1740.07114	-82.63351999999993	441.43096	1713.56713	4.3132900000000785	397.0495	1743.53313	-113.45081999999991	417.08359	1777.52864	-41.25999999999992	272.19117	1690.07106	188.30907000000008	225.42605	1729.17442	-212.9402099999999	312.71337	1407.49395	260.9539200000001	273.72352	1385.13295	214.30230000000006	306.24344	1442.22726	-221.79379999999995	273.04247	1426.39296	-168.44523999999996	402.49787	1147.6751	333.6555200000001	451.24937	1166.00658	306.92449000000005	267.08333	1394.72434	250.62473000000006	434.62051	1192.28358	-253.91644999999994	473.09958	1213.67976	-215.32386999999994	267.53736	1430.763	-215.55088999999995	583.82622	1053.86109	322.41827	499.54684	1073.78167	350.39789	443.02007	1120.60355	327.18559000000005	631.72642	1159.87717	-191.20350999999997	554.71153	1148.58316	-238.30915999999996	482.4072	1174.51965	-233.31481999999994	37.741270000000014	1224.23596	174.0638700000001	284.90402	851.81761	138.59275000000002	284.56349	851.76085	51.98647000000003	323.15607	881.38633	92.22491000000004	15.493779999999989	1236.04075	-174.00710999999993	441.31746	1100.45595	-137.85494999999997	442.67955	1105.62055	-51.41892999999996	453.68978	1150.22902	-94.72206999999996	332.29343	803.91741	93.70050000000003	147.6166	413.16758	99.31913000000002	153.06497	415.60799	31.157830000000015	477.52637	1053.80434	-97.78677999999995	237.4011	698.12835	-149.77324999999996	240.18203	692.907	-81.61194999999996	63.621	327.35585	30.647050000000018	232.57702	249.88693	25.82297	208.62693	240.97658	109.93209	242.62244	234.27964	71.68003	100.73797	306.98124	39.046610000000015	316.06185	197.61669	88.64942	128.26356	636.7775	-88.36564999999997	263.62135	509.76253	-99.43263999999999	237.85513	519.18365	-182.91746	267.99139	497.44695	-147.16257	156.92422	606.86826	-100.56770999999998	325.65324	442.11201	-171.39644	
3	0.033	0.0	1250.00218	7.654055843321067E-14	79.39855000000001	1365.49614	131.9525600000001	27.01479999999999	1364.58808	-152.3271699999999	17.934200000000008	1428.43609	116.57228000000009	-25.028420000000008	1427.69829	-116.40201999999991	-37.74126999999999	1181.44361	67.42350000000008	-59.1942	1181.10309	-49.09202999999992	-72.47459	1261.4097	13.33714000000008	-46.31109	1377.30093	9.023850000000087	5.05109	1488.19783	5.902390000000091	63.67775	1583.77121	3.461980000000093	325.25596	1601.36489	-37.230489999999925	218.61559	1714.24817	-6.8672099999999086	139.44406	1663.96431	-0.6242899999999066	219.92093	1528.20925	-29.682229999999922	273.78027	1743.76014	-10.499449999999909	501.58998	1739.44685	-84.73340999999994	442.11201	1713.05634	2.6106700000000775	396.99275	1743.1926	-114.81290999999992	417.59437	1777.13137	-42.792359999999924	272.58844	1689.2765	186.89022000000008	226.16385	1728.60688	-214.41580999999988	312.65662	1406.47238	259.13780000000014	273.43975	1384.28165	212.54294000000004	306.4137	1441.60297	-223.32615999999993	273.32624	1425.82542	-169.92083999999994	403.0654	1147.05081	332.00966000000005	451.76015	1165.6093	305.33538000000004	266.91307	1393.70278	248.80861000000004	435.01779	1191.60254	-254.93801999999994	473.49685	1213.16898	-216.45894999999993	267.70762	1430.08195	-217.02648999999994	584.50726	1053.63408	320.77241	500.22789	1073.3844	348.75203	443.64436	1120.14952	325.5397300000001	632.12369	1159.02586	-192.50884999999997	555.05205	1147.84537	-239.50098999999997	482.74772	1173.89535	-234.44989999999996	38.87634000000001	1226.67638	174.29088000000007	293.58735	859.02534	143.01955000000004	292.73604	857.66325	56.47002000000003	330.93134	888.70757	95.97066000000004	14.35870999999999	1232.40851	-173.8936099999999	437.17443	1087.68635	-137.79819999999998	439.44458	1095.1211	-51.532439999999966	451.13586	1138.25398	-96.14091999999995	337.51478	808.06044	98.18405000000003	129.90942	429.00188	91.48711000000002	137.28741	432.35036	23.55282000000002	477.01559	1043.75892	-99.03535999999997	254.59749	677.58348	-156.47019	257.60544	671.51082	-88.36564999999997	42.67885	347.78721	21.90696000000002	207.83237	262.48627	16.685610000000004	183.25798	253.80294	100.62447	217.02649	245.97092	62.42917	78.77426	325.59648	30.19302000000002	288.64977	205.56222	79.17153	149.94351	607.94658	-94.60855999999997	293.70085	490.6365	-105.90256999999998	267.14008	498.128	-189.38739	298.86545	478.6047	-153.68926	180.5338	580.08047	-106.86737999999998	360.27305	427.18576	-178.03663	
4	0.05	0.0	1250.00218	7.654055843321067E-14	79.68232000000002	1366.17719	131.15800000000007	27.12830999999999	1363.56651	-153.0649699999999	18.331470000000007	1429.11714	115.43721000000008	-24.744650000000007	1426.9605	-117.53709999999991	-37.798019999999994	1181.95439	67.87753000000006	-59.36446	1180.87607	-48.63799999999992	-72.41783	1261.63671	13.28039000000008	-46.14083	1377.41444	8.286050000000087	5.39161	1488.19783	4.880830000000091	64.07503	1583.71446	2.3269100000000926	325.76674	1601.25138	-37.74126999999992	219.06962	1714.13466	-7.548249999999909	139.84133	1663.90756	-1.5891099999999068	220.37496	1528.1525	-30.59028999999992	274.29106	1743.58988	-10.95347999999991	501.87375	1739.16308	-85.86847999999993	442.79306	1712.71582	1.7026100000000777	397.10626	1743.02234	-115.43720999999991	418.10516	1776.8476	-43.47339999999992	273.04247	1688.70897	186.03892000000008	227.18541	1728.60688	-215.32386999999989	312.88363	1405.73458	257.8892100000001	273.61001	1383.6006	211.35111000000006	307.32176	1441.54622	-224.29096999999993	274.1208	1425.76867	-170.94240999999994	403.97346	1146.65354	330.70432000000005	452.66821	1165.38229	304.08680000000004	267.14008	1392.90822	247.56002000000007	435.69883	1191.48903	-255.95957999999993	474.23465	1213.05547	-217.53726999999995	268.55893	1430.0252	-217.99129999999994	585.58559	1053.57732	319.46707	501.30621	1073.15738	347.50344	444.60918	1119.86575	324.2911500000001	632.80474	1158.57183	-193.70067999999998	555.61959	1147.5616	-240.63605999999996	483.37201	1173.72509	-235.52821999999995	40.068170000000016	1229.45731	174.57465000000008	304.65433	868.38971	148.01388000000003	303.23549	865.43852	61.46435000000003	340.86325	898.18545	100.17044000000004	12.826359999999989	1228.77627	-173.78009999999992	431.32879	1071.62503	-138.59274999999997	434.79077	1081.10291	-52.55400999999996	447.33336	1122.76019	-98.35430999999996	344.89277	814.87089	102.66760000000004	116.23176	448.46843	85.07393000000002	125.1421	452.55471	17.30991000000002	474.34816	1030.59204	-100.90823999999998	269.58049	654.65495	-160.72673	273.26949	648.07151	-92.73568999999998	25.70947	371.34004	15.15326000000002	186.83347	278.71785	9.307620000000007	161.80505	270.48855	93.18972	195.23303	261.40795	54.93767	60.78331	347.44669	23.269050000000018	265.04019	217.59402	71.50977	169.58032	577.75356	-98.80834999999999	320.48864	469.7511	-110.38611999999999	293.36033	475.53999	-193.75743	326.27753	458.05982	-158.11605	201.87322	551.87384	-111.12391999999998	390.97685	410.21638	-182.52018	
